<?xml version="1.0" encoding="utf-8"?>
<!-- Generator: Adobe Illustrator 25.0.0, SVG Export Plug-In . SVG Version: 6.00 Build 0)  -->
<svg version="1.1" id="Layer_1" xmlns="http://www.w3.org/2000/svg" xmlns:xlink="http://www.w3.org/1999/xlink" x="0px" y="0px"
	 viewBox="0 0 256 256" style="enable-background:new 0 0 256 256;" xml:space="preserve">
<style type="text/css">
	.st0{fill:#56BAA0;}
	.st1{fill:url(#SVGID_1_);}
	.st2{fill:url(#SVGID_2_);}
	.st3{fill:#49BAB7;}
	.st4{fill:#FFFFFF;}
	.st5{font-family:'Metropolis-Medium';}
	.st6{font-size:32.1033px;}
</style>
<g>
	<g>
		<polygon class="st0" points="18.87,99.93 6.61,108.16 6.61,147.84 18.87,156.07 		"/>
		<linearGradient id="SVGID_1_" gradientUnits="userSpaceOnUse" x1="14.7637" y1="188.8263" x2="78.0892" y2="90.7562">
			<stop  offset="0" style="stop-color:#0D0E19"/>
			<stop  offset="0.6022" style="stop-color:#20222A"/>
			<stop  offset="0.8398" style="stop-color:#3E4151"/>
			<stop  offset="1" style="stop-color:#4E5266"/>
		</linearGradient>
		<polygon class="st1" points="48.47,80.05 26.27,94.96 26.27,161.04 48.47,175.95 90.33,147.84 90.33,108.16 		"/>
		<linearGradient id="SVGID_2_" gradientUnits="userSpaceOnUse" x1="94.4785" y1="127.9996" x2="13.5439" y2="127.9996">
			<stop  offset="0" style="stop-color:#0D0E19"/>
			<stop  offset="0.6022" style="stop-color:#20222A"/>
			<stop  offset="0.8398" style="stop-color:#3E4151"/>
			<stop  offset="1" style="stop-color:#4E5266"/>
		</linearGradient>
		<polygon class="st2" points="48.8,80.27 48.8,175.73 90.33,147.84 90.33,108.16 		"/>
		<polygon class="st3" points="75.72,153.02 86.64,145.68 86.64,110.32 75.72,102.98 		"/>
		<path class="st4" d="M37.92,109.53l-9.8,1.02v30.7l3.3,0.26v-11.83l6.5,0.06c5.36,0.05,9.65-4.33,9.65-10.57
			C47.57,112.96,43.28,108.98,37.92,109.53z M37.41,125.51l-6,0.08v-11.3l6-0.48c3.61-0.29,6.13,1.79,6.13,5.56
			C43.55,123.15,41.02,125.46,37.41,125.51z"/>
		<g>
			<path class="st4" d="M49.7,136.26l1.99-3.61c1.95,2.64,4.2,4.29,7.02,4.15c2.79-0.14,4.2-2.41,4.2-4.83
				c0-2.86-1.64-3.96-5.04-5.14c-4.33-1.56-7.32-3.59-7.32-9.44c0-5.43,3.21-9.18,7.47-8.71c3.13,0.35,5.4,2.31,7.24,5.01
				l-1.62,3.19c-1.65-2.45-3.66-4-5.74-4.18c-2.35-0.21-4.04,1.92-4.04,4.47c0,2.97,1.84,4.06,5.27,5.4
				c3.98,1.53,6.63,3.58,6.63,8.91c0,5.02-2.46,9.01-7.17,9.36C55.09,141.08,52.08,139.43,49.7,136.26z"/>
		</g>
	</g>
	<text transform="matrix(1 0 0 1 99.1808 136.0521)" class="st5 st6">Pro Slider</text>
</g>
</svg>
